<?xml version="1.0" encoding="UTF-8"?>
<svg width="1200pt" height="1200pt" version="1.1" viewBox="0 0 1200 1200" xmlns="http://www.w3.org/2000/svg">
 <g fill="#2d3338">
  <path d="m352.88 963.88h16.625v-16.625h14.359v-28.719h-11.715c-6.4219 0-11.715-5.2891-11.715-11.715 0-6.4219 5.2891-11.715 11.715-11.715h17.383v-137.92h-17.383c-6.4219 0-11.715-5.2891-11.715-11.715 0-6.4219 5.2891-11.715 11.715-11.715h17.383v-140.56h-17.383c-6.4219 0-11.715-5.2891-11.715-11.715 0-6.4219 5.2891-11.715 11.715-11.715h17.383v-137.54h-17.383c-6.4219 0-11.715-5.2891-11.715-11.715 0-6.4219 5.2891-11.715 11.715-11.715h17.383v-140.18h-17.383c-6.4219 0-11.715-5.2891-11.715-11.715 0-6.4219 5.2891-11.715 11.715-11.715h17.383v-1.8867c0-7.9336 5.2891-14.359 12.09-14.359 6.8008 0 12.09 6.4219 12.09 14.359v2.2656h286.42v-2.2656c0-7.9336 5.2891-14.359 12.09-14.359s12.09 6.4219 12.09 14.359v2.2656h80.488v-2.2656c0-7.9336 5.2891-14.359 12.09-14.359s12.09 6.4219 12.09 14.359v2.2656h18.516c6.4219 0 11.715 5.2891 11.715 11.715 0 6.4219-5.2891 11.715-11.715 11.715h-18.516v140.18h18.516c6.4219 0 11.715 5.2891 11.715 11.715 0 6.4219-5.2891 11.715-11.715 11.715h-18.516v137.92h18.516c6.4219 0 11.715 5.2891 11.715 11.715 0 6.4219-5.2891 11.715-11.715 11.715h-18.516v140.94h18.516c6.4219 0 11.715 5.2891 11.715 11.715 0 6.4219-5.2891 11.715-11.715 11.715h-18.516v137.92h18.516c6.4219 0 11.715 5.2891 11.715 11.715 0 6.4219-5.2891 11.715-11.715 11.715h-13.227v28.34h14.359v17.004h10.957c2.2656 0 3.7773 1.5117 3.7773 3.7773s-1.5117 3.7773-3.7773 3.7773h-506.71c-2.2656 0-3.7773-1.5117-3.7773-3.7773 0.003906-2.2773 1.8945-4.9219 3.7812-4.9219zm24.562-0.37891h48.367v-9.0703h-48.367zm55.922-16.625v16.625h247.12v-17.004h14.359v-27.582h-275.84v27.961zm393.73-22.293h-20.027v22.293h20.027zm-22.293-12.848v-7.9336h-80.484v7.9336zm-413.38 13.223v22.293h20.027v-22.293zm308.71-648.4-117.51 59.324 117.51 58.945zm-143.21 72.172-119.4 60.078h239.56zm-143.21 67.637v8.3125h286.41v-7.9336h-286.41zm278.1 154.54h8.3125v-4.9102l-267.9-133.76h-18.137zm1.8906 163.23h6.4219v-5.668l-268.66-134.14h-17.758zm-1.8906 162.1h8.3125v-4.9141l-267.9-133.76h-18.137zm-134.89-59.324-117.14 58.945h235.03zm-0.75391-26.07 106.93-53.656h-214.25zm123.94-53.656-115.62 57.812 9.4453 4.9141 124.32-62.727zm-97.488 66.879 117.51 58.945v-117.89zm-168.9-80.105v5.668h286.41v-7.9336h-286.41zm263.37-9.8242-120.16-60.078-119.02 60.078zm-120.91-86.152 107.69-54.031h-215.76zm124.31-54.031-0.37891 0.37891-115.62 57.812 9.4453 4.9141 124.69-62.723-18.133-0.007813zm19.648 7.9336-117.51 59.324 117.51 58.945zm-286.41-20.402v4.9141l286.41-0.003906v-7.9336h-286.41zm261.1-10.582-117.89-58.945-117.14 58.945zm-118.64-85.395 106.93-53.277h-214.25zm123.94-53.277-115.62 57.812 9.4453 4.9141 124.32-62.727zm20.023 7.5547-117.51 59.324 117.51 58.57zm0 471.95v-7.9336h-286.41v8.3164l286.41-0.003907zm-286.41-15.492h9.0703l125.45-63.102-9.4453-4.9141-125.07 62.723zm116.38-72.551-116.76-58.191v116.76zm-116.38-89.551h7.1797l127.34-64.234-9.4453-4.9141-125.07 62.723zm116.38-73.305-116.76-58.191v116.76zm-116.38-89.93h9.0703l125.45-63.102-9.4453-4.9141-125.07 62.723zm116.38-72.172-116.76-58.191v116.76zm-116.38-89.93h7.1797l127.71-64.234-9.4453-4.9141-125.07 62.723v6.4258zm116.38-73.305-116.76-58.191v116.76zm-116.38-66.5 279.99 139.8h6.4219v-5.668l-268.66-134.52zm142.45 53.656 107.69-54.035h-215.76zm124.31-54.035-0.37891 0.37891-115.62 57.812 9.4453 4.9141 124.69-62.723-18.133-0.003906zm21.918 655.96v22.293h20.027v-22.293zm102.4-600.42h-80.484v31.363h80.484zm-80.484-7.5547h80.484v-4.1562h-80.484zm80.484 46.477h-80.484v4.1562h80.484zm0 123.56h-80.484v31.363h80.484zm-80.484-7.5586h80.484v-4.1562h-80.484zm80.484 46.477h-80.484v4.1562h80.484zm0 122.8h-80.484v31.363h80.484zm-80.484-7.5586h80.484v-4.1562h-80.484zm80.484 46.477h-80.484v4.1562h80.484zm0 123.94h-80.484v31.363h80.484zm-80.484-7.5547h80.484v-4.1562h-80.484zm80.484 46.098h-80.484v4.1562h80.484zm-80.484-545.25h80.484v-35.895h-80.484zm80.484 70.281h-80.484v34.008h80.484zm0 41.566h-80.484v7.9336h80.484zm-80.484 15.871v35.141h80.484v-35.141zm80.484 105.04h-80.484v33.629h80.484zm0 41.188h-80.484v7.9336h80.484zm-80.484 15.492v35.141h80.484v-35.141zm80.484 105.04h-80.484v35.141h80.484zm0 42.699h-80.484v7.9336h80.484zm-80.484 15.492v34.387l80.484-0.003906v-34.387zm80.484 104.66h-80.484v34.387h80.484zm-116.76 92.578v9.0703l48.367-0.003906v-9.0703zm-315.89-51.391c-2.2656 0-4.1562 1.8906-4.1562 4.1562s1.8906 4.1562 4.1562 4.1562h17.383v-7.9336h-17.383zm0-161.34c-2.2656 0-4.1562 1.8906-4.1562 4.1562s1.8906 4.1562 4.1562 4.1562h17.383v-7.9336l-17.383-0.003906zm0-163.99c-2.2656 0-4.1562 1.8906-4.1562 4.1562s1.8906 4.1562 4.1562 4.1562h17.383v-7.9336h-17.383zm0-161.34c-2.2656 0-4.1562 1.8906-4.1562 4.1562s1.8906 4.1562 4.1562 4.1562h17.383v-7.9336h-17.383zm0-163.23c-2.2656 0-4.1562 1.8906-4.1562 4.1562s1.8906 4.1562 4.1562 4.1562h17.383l-0.003906-8.3125zm34.004-9.8242c0-3.7773-2.2656-6.8008-4.5352-6.8008-2.2656 0-4.5352 3.0234-4.5352 6.8008l0.003906 674.1h9.0703v-194.22l-0.003906-129.22zm7.5586 9.8242v7.9336h286.41v-7.9336zm298.51-16.625c-2.2656 0-4.5352 3.0234-4.5352 6.8008v673.72h9.0703v-108.82c0-0.37891-0.37891-0.75391-0.37891-1.1328s0-0.75391 0.37891-1.1328v-160.59c0-0.37891-0.37891-0.75391-0.37891-1.1328 0-0.37891 0-0.75391 0.37891-1.1328v-159.08c0-0.37891-0.37891-0.75391-0.37891-1.1328 0-0.37891 0-0.75391 0.37891-1.1328v-160.59c0-0.37891-0.37891-0.75391-0.37891-1.1328 0-0.37891 0-0.75391 0.37891-1.1328v-75.574c0-3.7773-1.8906-6.8008-4.5352-6.8008zm12.09 16.625v7.9336h80.484v-7.9336zm92.953-16.625c-2.2656 0-4.5352 3.0234-4.5352 6.8008v672.96h9.0703v-672.96c0-3.7773-2.2656-6.8008-4.5352-6.8008zm30.605 24.559c2.2656 0 4.1562-1.8906 4.1562-4.1562s-1.8906-4.1562-4.1562-4.1562h-18.516v7.9336l18.516 0.003906zm0 163.61c2.2656 0 4.1562-1.8906 4.1562-4.1562s-1.8906-4.1562-4.1562-4.1562h-18.516v7.9336h18.516zm0 160.97c2.2656 0 4.1562-1.8906 4.1562-4.1562s-1.8906-4.1562-4.1562-4.1562h-18.516v7.9336h18.516zm0 163.99c2.2656 0 4.1562-1.8906 4.1562-4.1562 0-2.2656-1.8906-4.1562-4.1562-4.1562h-18.516v7.9336h18.516zm0 153.41h-18.516v7.9336h18.516c2.2656 0 4.1562-1.8906 4.1562-4.1562 0-2.2656-1.8867-3.7773-4.1562-3.7773zm-6.4219 51.391h-48.367v9.0703l48.367-0.003906zm-41.941-7.5586v-27.582h-69.902v27.582h14.359v17.004h41.562v-17.004z"/>
  <path d="m329.07 963.88h6.0469c2.2656 0 3.7773 1.5117 3.7773 3.7773s-1.5117 3.7773-3.7773 3.7773h-6.0469c-2.2656 0-3.7773-1.5117-3.7773-3.7773s1.8867-3.7773 3.7773-3.7773z"/>
  <path d="m289.02 963.88h24.938c2.2656 0 3.7773 1.5117 3.7773 3.7773s-1.5117 3.7773-3.7773 3.7773h-24.938c-2.2656 0-3.7773-1.5117-3.7773-3.7773-0.003906-2.2656 1.8867-3.7773 3.7773-3.7773z"/>
  <path d="m876.59 963.88h18.895c2.2656 0 3.7773 1.5117 3.7773 3.7773s-1.5117 3.7773-3.7773 3.7773h-18.895c-2.2656 0-3.7773-1.5117-3.7773-3.7773s1.5117-3.7773 3.7773-3.7773z"/>
 </g>
</svg>
